<?xml version="1.0" ?><svg height="60px" version="1.1" viewBox="0 0 60 60" width="60px" xmlns="http://www.w3.org/2000/svg" xmlns:sketch="http://www.bohemiancoding.com/sketch/ns" xmlns:xlink="http://www.w3.org/1999/xlink"><title/><desc/><defs/><g fill="none" fill-rule="evenodd" id="soical" stroke="none" stroke-width="1"><g id="social" transform="translate(-373.000000, -638.000000)"><g id="slices" transform="translate(173.000000, 138.000000)"/><g fill="#7F8C8D" id="hexagon-flat" transform="translate(173.000000, 138.000000)"><polygon id="Polygon-52" points="230 500 255.980762 515 255.980762 545 230 560 204.019238 545 204.019238 515 "/></g><g fill="#000000" fill-opacity="0.4" id="hexagon-black" transform="translate(177.000000, 152.000000)"><path d="M223.464102,544.535898 L200.019238,531 L200.019238,521.8099 L212.413158,509.41598 L243.084055,524.915945 L223.464102,544.535898 Z" id="Polygon-52"/></g><g fill="#FFFFFF" id="icon" transform="translate(182.000000, 150.000000)"><path d="M223.884615,505.307692 C219.562308,505.307692 215.825,507.809231 214.04,511.443846 C213.195385,510.510385 211.973462,509.923077 210.615385,509.923077 C208.066538,509.923077 206,511.989615 206,514.538462 C206,515.204231 206.140769,515.836538 206.393462,516.407692 C204.108846,517.538462 202.538462,519.893462 202.538462,522.615385 C202.538462,526.045769 205.033077,528.893462 208.307692,529.442692 L208.307692,529.538462 L209.461538,529.538462 L232.538462,529.538462 L233.692308,529.538462 L233.692308,529.442692 C236.966923,528.893462 239.461538,526.045769 239.461538,522.615385 C239.461538,519.600385 237.534615,517.035385 234.843846,516.085769 C234.746923,510.115769 229.876538,505.307692 223.884615,505.307692 L223.884615,505.307692 L223.884615,505.307692 Z" id="cloud"/></g></g></g></svg>