<?xml version="1.0" ?><svg height="60px" version="1.1" viewBox="0 0 60 60" width="60px" xmlns="http://www.w3.org/2000/svg" xmlns:sketch="http://www.bohemiancoding.com/sketch/ns" xmlns:xlink="http://www.w3.org/1999/xlink"><title/><desc/><defs/><g fill="none" fill-rule="evenodd" id="soical" stroke="none" stroke-width="1"><g id="social" transform="translate(-673.000000, -738.000000)"><g id="slices" transform="translate(173.000000, 138.000000)"/><g fill="#57BA63" id="hexagon-flat" transform="translate(173.000000, 138.000000)"><polygon id="Polygon-65" points="530 600 555.980762 615 555.980762 645 530 660 504.019238 645 504.019238 615 "/></g><g fill="#000000" fill-opacity="0.4" id="hexagon-black" transform="translate(177.000000, 152.000000)"><path d="M518.392305,641.607695 L500.019238,631 L500.019238,619.980762 L513.194092,606.805908 L537.695801,622.304199 L518.392305,641.607695 Z" id="Polygon-65"/></g><g fill="#FFFFFF" id="icon" transform="translate(182.000000, 150.000000)"><path d="M520.423077,604.153846 C511.820242,604.153846 504.846154,609.722638 504.846154,616.592147 C504.846154,620.082638 506.649116,623.235379 509.549361,625.494217 C510.373616,630.006744 506.390377,630.840669 506.390377,630.840669 C506.390377,630.840669 505.892966,631.477094 507.128892,631.712156 C512.103304,632.618781 516.125764,628.627874 516.125764,628.627874 L516.130325,628.547904 C517.494556,628.859604 518.933581,629.030145 520.423077,629.030145 C529.026216,629.030145 536,623.461354 536,616.591844 C536,609.722335 529.026216,604.153846 520.423077,604.153846 L520.423077,604.153846 Z" id="imessage"/></g></g></g></svg>