<?xml version="1.0"?>
<!-- Generated by SVGo -->
<svg width="528" height="487"
     style="font-family:Ubuntu, sans-serif;" viewBox="0 0 528 487"
     xmlns="http://www.w3.org/2000/svg" 
     xmlns:xlink="http://www.w3.org/1999/xlink">
<defs>
<g id="serviceBlock" transform="scale(0.8)" >

<svg version="1.1" xmlns="http://www.w3.org/2000/svg" xmlns:xlink="http://www.w3.org/1999/xlink" x="0px" y="0px"
	 width="235.958px" height="235.958px" viewBox="-143.979 -6 235.958 235.958" enable-background="new -143.979 -6 235.958 235.958"
	 xml:space="preserve">
<g id="Layer_1" inkscape:version="0.48.3.1 r9886" sodipodi:docname="service_module.svg" xmlns:dc="http://purl.org/dc/elements/1.1/" xmlns:cc="http://creativecommons.org/ns#" xmlns:rdf="http://www.w3.org/1999/02/22-rdf-syntax-ns#" xmlns:svg="http://www.w3.org/2000/svg" xmlns:sodipodi="http://sodipodi.sourceforge.net/DTD/sodipodi-0.dtd" xmlns:inkscape="http://www.inkscape.org/namespaces/inkscape">
	<g id="g33_1_" transform="translate(-399.571,-251.207)">
		<g id="path46_1_">
			<path fill="#BBBBBB" d="M410.565,479.165h-73.988c-38.324,0-57.56,0-68.272-10.713c-10.712-10.713-10.712-29.949-10.712-68.273
				v-73.986c-0.001-38.324-0.001-57.561,10.711-68.273c10.713-10.713,29.949-10.713,68.274-10.713h73.988
				c38.324,0,57.561,0,68.272,10.713c10.713,10.712,10.713,29.949,10.713,68.273v73.986c0,38.324,0,57.561-10.713,68.273
				C468.126,479.165,448.889,479.165,410.565,479.165z M336.577,257.207c-34.445,0-53.419,0-61.203,7.784
				s-7.783,26.757-7.782,61.202v73.986c0,34.444,0,53.419,7.784,61.202c7.784,7.784,26.757,7.784,61.201,7.784h73.988
				c34.444,0,53.418,0,61.202-7.784c7.783-7.783,7.783-26.758,7.783-61.202v-73.986c0-34.444,0-53.418-7.783-61.202
				c-7.784-7.784-26.758-7.784-61.202-7.784H336.577z"/>
		</g>
		<g id="path59_1_">
			<path fill="#BBBBBB" d="M410.565,479.165h-73.988c-38.324,0-57.56,0-68.272-10.713c-10.712-10.713-10.712-29.949-10.712-68.273
				v-73.986c0-38.324,0-57.561,10.712-68.273c10.713-10.713,29.949-10.713,68.272-10.713h73.988c38.324,0,57.561,0,68.272,10.713
				c10.713,10.712,10.713,29.949,10.713,68.273v73.986c0,38.324,0,57.561-10.713,68.273
				C468.126,479.165,448.889,479.165,410.565,479.165z M336.577,257.207c-34.444,0-53.417,0-61.201,7.784
				s-7.784,26.758-7.784,61.202v73.986c0,34.444,0,53.419,7.784,61.202c7.784,7.784,26.757,7.784,61.201,7.784h73.988
				c34.444,0,53.418,0,61.201-7.784c7.784-7.783,7.784-26.758,7.784-61.202v-73.986c0-34.444,0-53.418-7.784-61.202
				c-7.783-7.784-26.757-7.784-61.201-7.784H336.577z"/>
		</g>
	</g>
	<path fill-rule="evenodd" clip-rule="evenodd" fill="#BBBBBB" d="M-42,219.958h32c2.209,0,4,1.791,4,4v2c0,2.209-1.791,4-4,4h-32
		c-2.209,0-4-1.791-4-4v-2C-46,221.749-44.209,219.958-42,219.958z"/>
	<path fill-rule="evenodd" clip-rule="evenodd" fill="#BBBBBB" d="M-42-6h32c2.209,0,4,1.791,4,4v2c0,2.209-1.791,4-4,4h-32
		c-2.209,0-4-1.791-4-4v-2C-46-4.209-44.209-6-42-6z"/>
	<path fill-rule="evenodd" clip-rule="evenodd" fill="#BBBBBB" d="M81.979,127.979v-32c0-2.209,1.791-4,4-4h2c2.209,0,4,1.791,4,4
		v32c0,2.209-1.791,4-4,4h-2C83.771,131.979,81.979,130.188,81.979,127.979z"/>
	<path fill-rule="evenodd" clip-rule="evenodd" fill="#BBBBBB" d="M-143.979,127.979v-32c0-2.209,1.791-4,4-4h2c2.209,0,4,1.791,4,4
		v32c0,2.209-1.791,4-4,4h-2C-142.188,131.979-143.979,130.188-143.979,127.979z"/>
	<path fill="#FFFFFF" d="M10.994-1h-73.988c-73.987,0-73.987,0-73.985,73.986v73.986c0,73.986,0,73.986,73.985,73.986h73.988
		c73.985,0,73.985,0,73.985-73.986V72.986C84.979-1,84.979-1,10.994-1z"/>
</g>
<g id="Layer_2">
</g>
</svg>
</g>
<g id="healthCircle">
<circle cx="10" cy="10" r="10" style="stroke:#38B44A;fill:none;stroke-width:2px"/>
<circle cx="10" cy="10" r="5" style="fill:#38B44A"/>
</g>
<svg xmlns:dc="http://purl.org/dc/elements/1.1/" xmlns:cc="http://creativecommons.org/ns#" xmlns:rdf="http://www.w3.org/1999/02/22-rdf-syntax-ns#" xmlns:svg="http://www.w3.org/2000/svg" xmlns="http://www.w3.org/2000/svg" xmlns:xlink="http://www.w3.org/1999/xlink" xmlns:sodipodi="http://sodipodi.sourceforge.net/DTD/sodipodi-0.dtd" xmlns:inkscape="http://www.inkscape.org/namespaces/inkscape" width="96" height="96" id="icon-1" version="1.1" inkscape:version="0.48+devel r12304" sodipodi:docname="memcache.svg" viewBox="0 0 96 96">
  <defs id="defs6519">
    <linearGradient inkscape:collect="always" id="linearGradient909">
      <stop style="stop-color:#db7c7c;stop-opacity:1" offset="0" id="stop911"></stop>
      <stop style="stop-color:#c83737;stop-opacity:1" offset="1" id="stop913"></stop>
    </linearGradient>
    <linearGradient inkscape:collect="always" id="linearGradient905">
      <stop style="stop-color:#268d83;stop-opacity:1" offset="0" id="stop907"></stop>
      <stop style="stop-color:#2ea19e;stop-opacity:1" offset="1" id="stop909"></stop>
    </linearGradient>
    <linearGradient inkscape:collect="always" xlink:href="#Background" id="linearGradient6461" gradientUnits="userSpaceOnUse" x1="0" y1="970.29498" x2="144" y2="970.29498" gradientTransform="matrix(0,-0.66666669,0.6660448,0,-866.25992,731.29077)"></linearGradient>
    <linearGradient id="Background">
      <stop id="stop4178" offset="0" style="stop-color:#574c4a;stop-opacity:1"></stop>
      <stop id="stop4180" offset="1" style="stop-color:#80716d;stop-opacity:1"></stop>
    </linearGradient>
    <filter style="color-interpolation-filters:sRGB;" inkscape:label="Inner Shadow" id="filter1121">
      <feFlood flood-opacity="0.59999999999999998" flood-color="rgb(0,0,0)" result="flood" id="feFlood1123"></feFlood>
      <feComposite in="flood" in2="SourceGraphic" operator="out" result="composite1" id="feComposite1125"></feComposite>
      <feGaussianBlur in="composite1" stdDeviation="1" result="blur" id="feGaussianBlur1127"></feGaussianBlur>
      <feOffset dx="0" dy="2" result="offset" id="feOffset1129"></feOffset>
      <feComposite in="offset" in2="SourceGraphic" operator="atop" result="composite2" id="feComposite1131"></feComposite>
    </filter>
    <filter style="color-interpolation-filters:sRGB;" inkscape:label="Drop Shadow" id="filter950">
      <feFlood flood-opacity="0.25" flood-color="rgb(0,0,0)" result="flood" id="feFlood952"></feFlood>
      <feComposite in="flood" in2="SourceGraphic" operator="in" result="composite1" id="feComposite954"></feComposite>
      <feGaussianBlur in="composite1" stdDeviation="1" result="blur" id="feGaussianBlur956"></feGaussianBlur>
      <feOffset dx="0" dy="1" result="offset" id="feOffset958"></feOffset>
      <feComposite in="SourceGraphic" in2="offset" operator="over" result="composite2" id="feComposite960"></feComposite>
    </filter>
    <clipPath clipPathUnits="userSpaceOnUse" id="clipPath873">
      <g transform="matrix(0,-0.66666667,0.66604479,0,-258.25992,677.00001)" id="g875" inkscape:label="Layer 1" style="fill:#ff00ff;fill-opacity:1;stroke:none;display:inline">
        <path style="fill:#ff00ff;fill-opacity:1;stroke:none;display:inline" d="m 46.702703,898.22775 50.594594,0 C 138.16216,898.22775 144,904.06497 144,944.92583 l 0,50.73846 c 0,40.86071 -5.83784,46.69791 -46.702703,46.69791 l -50.594594,0 C 5.8378378,1042.3622 0,1036.525 0,995.66429 L 0,944.92583 C 0,904.06497 5.8378378,898.22775 46.702703,898.22775 Z" id="path877" inkscape:connector-curvature="0" sodipodi:nodetypes="sssssssss"></path>
      </g>
    </clipPath>
    <filter inkscape:collect="always" id="filter891" inkscape:label="Badge Shadow">
      <feGaussianBlur inkscape:collect="always" stdDeviation="0.71999962" id="feGaussianBlur893"></feGaussianBlur>
    </filter>
    <linearGradient inkscape:collect="always" xlink:href="#linearGradient905" id="linearGradient911" x1="-370.54721" y1="813.46576" x2="-400.95572" y2="760.20819" gradientUnits="userSpaceOnUse" gradientTransform="matrix(1.1636363,0,0,1.1636363,502.58617,-871.5383)"></linearGradient>
    <clipPath clipPathUnits="userSpaceOnUse" id="clipPath874">
      <path sodipodi:nodetypes="cccssczcssccccscc" inkscape:connector-curvature="0" id="path876" d="m -414.0975,764.53909 c -7.8125,17.9106 -1.95313,49.75167 -1.95313,49.75167 l 12.69531,0 c 0,-2.9851 -0.83592,-4.55148 -1.19017,-6.62319 -3.77705,-22.08828 -2.54859,-29.19801 -0.76295,-29.19801 1.95312,0 10.74219,24.87583 10.74219,24.87583 0,0 1.95313,-0.49751 3.90625,-0.49751 1.95312,0 3.90625,0.49751 3.90625,0.49751 0,0 8.78906,-24.87583 10.74218,-24.87583 1.78565,0 3.01411,7.10973 -0.76293,29.19801 -0.35426,2.07171 -1.19019,3.63809 -1.19019,6.62319 l 12.69532,0 c 0,0 5.85937,-31.84107 -1.95314,-49.75167 l -11.71874,0 c -3.3378,-0.20005 -10.74219,14.9255 -11.71875,14.9255 C -391.63657,779.46459 -399.04095,764.33904 -402.37875,764.53909 Z" style="opacity:0.47400004;color:#000000;fill:#ff00ff;fill-opacity:1;fill-rule:nonzero;stroke:none;stroke-width:0.5;marker:none;visibility:visible;display:inline;overflow:visible;enable-background:accumulate"></path>
    </clipPath>
    <clipPath clipPathUnits="userSpaceOnUse" id="clipPath896">
      <path sodipodi:nodetypes="cccssczcssccccscc" inkscape:connector-curvature="0" id="path898" d="m -414.0975,764.53909 c -7.8125,17.9106 -1.95313,49.75167 -1.95313,49.75167 l 12.69531,0 c 0,-2.9851 -0.83592,-4.55148 -1.19017,-6.62319 -3.77705,-22.08828 -2.54859,-29.19801 -0.76295,-29.19801 1.95312,0 10.74219,24.87583 10.74219,24.87583 0,0 1.95313,-0.49751 3.90625,-0.49751 1.95312,0 3.90625,0.49751 3.90625,0.49751 0,0 8.78906,-24.87583 10.74218,-24.87583 1.78565,0 3.01411,7.10973 -0.76293,29.19801 -0.35426,2.07171 -1.19019,3.63809 -1.19019,6.62319 l 12.69532,0 c 0,0 5.85937,-31.84107 -1.95314,-49.75167 l -11.71874,0 c -3.3378,-0.20005 -10.74219,14.9255 -11.71875,14.9255 C -391.63657,779.46459 -399.04095,764.33904 -402.37875,764.53909 Z" style="color:#000000;fill:#ff00ff;fill-opacity:1;fill-rule:nonzero;stroke:none;stroke-width:0.5;marker:none;visibility:visible;display:inline;overflow:visible;enable-background:accumulate"></path>
    </clipPath>
    <radialGradient inkscape:collect="always" xlink:href="#linearGradient909" id="radialGradient915" cx="-128.51562" cy="176.5625" fx="-128.51562" fy="176.5625" r="3" gradientUnits="userSpaceOnUse"></radialGradient>
    <radialGradient inkscape:collect="always" xlink:href="#linearGradient909" id="radialGradient923" cx="-128.34375" cy="176.5625" fx="-128.34375" fy="176.5625" r="3" gradientUnits="userSpaceOnUse"></radialGradient>
  </defs>
  <sodipodi:namedview id="base" pagecolor="#ffffff" bordercolor="#666666" borderopacity="1.0" inkscape:pageopacity="0.0" inkscape:pageshadow="2" inkscape:zoom="2.6077032" inkscape:cx="-17.529322" inkscape:cy="74.347537" inkscape:document-units="px" inkscape:current-layer="layer1" showgrid="false" fit-margin-top="0" fit-margin-left="0" fit-margin-right="0" fit-margin-bottom="0" inkscape:window-width="1920" inkscape:window-height="1029" inkscape:window-x="0" inkscape:window-y="24" inkscape:window-maximized="1" showborder="true" showguides="false" inkscape:guide-bbox="true" inkscape:showpageshadow="false" inkscape:snap-global="true" inkscape:snap-bbox="true" inkscape:bbox-paths="true" inkscape:bbox-nodes="true" inkscape:snap-bbox-edge-midpoints="true" inkscape:snap-bbox-midpoints="true" inkscape:snap-intersection-paths="true" inkscape:object-paths="true" inkscape:object-nodes="true" inkscape:snap-smooth-nodes="true" inkscape:snap-midpoints="true" inkscape:snap-object-midpoints="true" inkscape:snap-center="true">
    <inkscape:grid type="xygrid" id="grid821"></inkscape:grid>
    <sodipodi:guide orientation="1,0" position="16,48" id="guide823"></sodipodi:guide>
    <sodipodi:guide orientation="0,1" position="64,80" id="guide825"></sodipodi:guide>
    <sodipodi:guide orientation="1,0" position="80,40" id="guide827"></sodipodi:guide>
    <sodipodi:guide orientation="0,1" position="64,16" id="guide829"></sodipodi:guide>
  </sodipodi:namedview>
  <metadata id="metadata6522">
    <rdf:RDF>
      <cc:Work rdf:about="">
        <dc:format>image/svg+xml</dc:format>
        <dc:type rdf:resource="http://purl.org/dc/dcmitype/StillImage"></dc:type>
        <dc:title></dc:title>
      </cc:Work>
    </rdf:RDF>
  </metadata>
  <g inkscape:label="BACKGROUND" inkscape:groupmode="layer" id="layer1" transform="translate(268,-635.29076)" style="display:inline">
    <path style="fill:url(#linearGradient6461);fill-opacity:1;stroke:none;display:inline;filter:url(#filter1121)" d="m -268,700.15563 0,-33.72973 c 0,-27.24324 3.88785,-31.13513 31.10302,-31.13513 l 33.79408,0 c 27.21507,0 31.1029,3.89189 31.1029,31.13513 l 0,33.72973 c 0,27.24325 -3.88783,31.13514 -31.1029,31.13514 l -33.79408,0 C -264.11215,731.29077 -268,727.39888 -268,700.15563 Z" id="path6455" inkscape:connector-curvature="0" sodipodi:nodetypes="sssssssss"></path>
    <g id="g936" transform="matrix(1.1636363,0,0,1.1636363,234.58616,-235.88178)" style="filter:url(#filter950)">
      <path style="color:#000000;fill:url(#linearGradient911);fill-opacity:1;fill-rule:nonzero;stroke:none;stroke-width:0.5;marker:none;visibility:visible;display:inline;overflow:visible;enable-background:accumulate" d="M 20.71875 18.09375 C 15.999994 48.000003 18.46875 76 18.46875 76 L 33.21875 76 C 31.815283 68.534252 26.780413 34.425113 30.96875 34.3125 C 33.213371 34.668785 43.46875 63.25 43.46875 63.25 C 43.46875 63.25 45.727279 62.96875 48 62.96875 C 50.272721 62.96875 52.53125 63.25 52.53125 63.25 C 52.53125 63.25 62.78663 34.668782 65.03125 34.3125 C 69.219596 34.425105 64.184712 68.534261 62.78125 76 L 77.53125 76 C 77.53125 76 80.000005 47.999994 75.28125 18.09375 L 61.625 18.09375 C 59.025704 18.124493 49.136372 35.46875 48 35.46875 C 46.863628 35.46875 36.974296 18.124493 34.375 18.09375 L 20.71875 18.09375 z " transform="matrix(0.85937505,0,0,0.85937505,-431.91,748.66394)" id="path874"></path>
      <path sodipodi:type="arc" style="color:#000000;fill:url(#radialGradient915);fill-opacity:1;fill-rule:nonzero;stroke:none;stroke-width:0.5;marker:none;visibility:visible;display:inline;overflow:visible;enable-background:accumulate" id="path893" sodipodi:cx="-128" sodipodi:cy="177" sodipodi:rx="3" sodipodi:ry="3" d="m -125,177 a 3,3 0 1 1 -6,0 A 3,3 0 1 1 -125,177 Z" transform="translate(-268.16,633.97645)"></path>
      <path transform="translate(-257.16,633.97645)" d="m -125,177 a 3,3 0 1 1 -6,0 A 3,3 0 1 1 -125,177 Z" sodipodi:ry="3" sodipodi:rx="3" sodipodi:cy="177" sodipodi:cx="-128" id="path897" style="color:#000000;fill:url(#radialGradient923);fill-opacity:1;fill-rule:nonzero;stroke:none;stroke-width:0.5;marker:none;visibility:visible;display:inline;overflow:visible;enable-background:accumulate" sodipodi:type="arc"></path>
      <path style="opacity:0.1;color:#000000;fill:#000000;fill-opacity:1;fill-rule:nonzero;stroke:none;stroke-width:0.5;marker:none;visibility:visible;display:inline;overflow:visible;enable-background:accumulate" d="m 74.586,19.082419 c 2.128647,14.408265 2.628081,28.236362 2.588904,38.536764 C 77.134832,68.154976 76.53125,75 76.53125,75 l -12.415644,0 -1.334356,1 14.75,0 C 77.53125,76 80.000005,47.999994 75.28125,18.09375 Z M 35.5,18.71875 c 3.87485,4.310209 10.576698,15.75 11.5,15.75 C 44.543087,31.326539 38.508139,21.302247 35.5,18.71875 Z M 29.96875,33.3125 c -4.188334,0.112617 0.846538,34.221749 2.25,41.6875 l -12.876027,0 -0.873973,1 14.75,0 C 31.822395,68.572085 26.831814,34.765806 30.90625,34.3125 30.526835,33.742675 30.199134,33.349068 29.96875,33.3125 z m 34.0625,0 c -2.24462,0.356282 -12.5,28.9375 -12.5,28.9375 0,0 -2.258529,-0.28125 -4.53125,-0.28125 -1.344727,0 -2.502409,0.08286 -3.285254,0.15581 L 43.46875,63.25 c 0,0 2.258529,-0.28125 4.53125,-0.28125 2.272721,0 4.53125,0.28125 4.53125,0.28125 0,0 10.178153,-28.393722 12.46875,-28.9375 C 64.753173,33.687245 64.448215,33.323714 64.03125,33.3125 Z" transform="matrix(0.85937505,0,0,0.85937505,-431.91,748.66394)" id="path902" inkscape:connector-curvature="0" sodipodi:nodetypes="csccccccccccccccccccsccsccc"></path>
      <path style="opacity:0.3;color:#000000;fill:#ffffff;fill-opacity:1;fill-rule:nonzero;stroke:none;stroke-width:0.5;marker:none;visibility:visible;display:inline;overflow:visible;enable-background:accumulate" d="M 20.71875,18.09375 C 15.999994,48.000003 18.46875,76 18.46875,76 l 0.86851,-0.976213 C 18.892832,68.417813 17.705457,44.528959 21.71875,19.09375 l 13.65625,0 c 0.289297,0.0034 0.677213,0.240424 1.125,0.625 C 35.605804,18.724086 34.862368,18.099514 34.375,18.09375 z m 40.90625,0 c -2.599296,0.03074 -12.488628,17.375 -13.625,17.375 0.46341,0.592666 0.839745,1 1,1 1.136372,0 11.025704,-17.34428 13.625,-17.375 l 12.051367,0 L 75.28125,18.09375 Z M 31.90625,35.3125 c 3.317202,4.981951 11.5625,27.9375 11.5625,27.9375 l 0.241264,-1.119363 C 41.674284,56.548552 33.917574,35.621831 31.96875,35.3125 31.947525,35.313071 31.927003,35.310191 31.90625,35.3125 z m 34.125,0 c 2.225022,5.674964 -1.986884,33.968335 -3.25,40.6875 l 1.338036,-1.044376 C 65.827258,64.934912 69.939991,35.41762 66.03125,35.3125 Z" transform="matrix(0.85937505,0,0,0.85937505,-431.91,748.66394)" id="path889" inkscape:connector-curvature="0" sodipodi:nodetypes="ccccccccccsccccccccccccc"></path>
    </g>
  </g>
  <g inkscape:groupmode="layer" id="layer3" inkscape:label="PLACE YOUR PICTOGRAM HERE" style="display:inline"></g>
  <g inkscape:groupmode="layer" id="layer2" inkscape:label="BADGE" style="display:none" sodipodi:insensitive="true">
    <g style="display:inline" transform="translate(-340.00001,-581)" id="g4394" clip-path="none">
      <g id="g855">
        <g inkscape:groupmode="maskhelper" id="g870" clip-path="url(#clipPath873)" style="opacity:0.6;filter:url(#filter891)">
          <path transform="matrix(1.4999992,0,0,1.4999992,-29.999795,-237.54282)" d="m 264,552.36218 c 0,6.62742 -5.37258,12 -12,12 -6.62742,0 -12,-5.37258 -12,-12 0,-6.62741 5.37258,-12 12,-12 C 258.62742,540.36218 264,545.73477 264,552.36218 Z" sodipodi:ry="12" sodipodi:rx="12" sodipodi:cy="552.36218" sodipodi:cx="252" id="path844" style="color:#000000;fill:#000000;fill-opacity:1;fill-rule:nonzero;stroke:none;stroke-width:4;marker:none;visibility:visible;display:inline;overflow:visible;enable-background:accumulate" sodipodi:type="arc"></path>
        </g>
        <g id="g862">
          <path sodipodi:type="arc" style="color:#000000;fill:#f5f5f5;fill-opacity:1;fill-rule:nonzero;stroke:none;stroke-width:4;marker:none;visibility:visible;display:inline;overflow:visible;enable-background:accumulate" id="path4398" sodipodi:cx="252" sodipodi:cy="552.36218" sodipodi:rx="12" sodipodi:ry="12" d="m 264,552.36218 c 0,6.62742 -5.37258,12 -12,12 -6.62742,0 -12,-5.37258 -12,-12 0,-6.62741 5.37258,-12 12,-12 C 258.62742,540.36218 264,545.73477 264,552.36218 Z" transform="matrix(1.4999992,0,0,1.4999992,-29.999795,-238.54282)"></path>
          <path transform="matrix(1.25,0,0,1.25,33,-100.45273)" d="m 264,552.36218 c 0,6.62742 -5.37258,12 -12,12 -6.62742,0 -12,-5.37258 -12,-12 0,-6.62741 5.37258,-12 12,-12 C 258.62742,540.36218 264,545.73477 264,552.36218 Z" sodipodi:ry="12" sodipodi:rx="12" sodipodi:cy="552.36218" sodipodi:cx="252" id="path4400" style="color:#000000;fill:#dd4814;fill-opacity:1;fill-rule:nonzero;stroke:none;stroke-width:4;marker:none;visibility:visible;display:inline;overflow:visible;enable-background:accumulate" sodipodi:type="arc"></path>
          <path sodipodi:type="star" style="color:#000000;fill:#f5f5f5;fill-opacity:1;fill-rule:nonzero;stroke:none;stroke-width:3;marker:none;visibility:visible;display:inline;overflow:visible;enable-background:accumulate" id="path4459" sodipodi:sides="5" sodipodi:cx="666.19574" sodipodi:cy="589.50385" sodipodi:r1="7.2431178" sodipodi:r2="4.3458705" sodipodi:arg1="1.0471976" sodipodi:arg2="1.6755161" inkscape:flatsided="false" inkscape:rounded="0.1" inkscape:randomized="0" d="m 669.8173,595.77657 c -0.39132,0.22593 -3.62645,-1.90343 -4.07583,-1.95066 -0.44938,-0.0472 -4.05653,1.36297 -4.39232,1.06062 -0.3358,-0.30235 0.68963,-4.03715 0.59569,-4.47913 -0.0939,-0.44198 -2.5498,-3.43681 -2.36602,-3.8496 0.18379,-0.41279 4.05267,-0.59166 4.44398,-0.81759 0.39132,-0.22593 2.48067,-3.48704 2.93005,-3.4398 0.44938,0.0472 1.81505,3.67147 2.15084,3.97382 0.3358,0.30236 4.08294,1.2817 4.17689,1.72369 0.0939,0.44198 -2.9309,2.86076 -3.11469,3.27355 C 669.9821,591.68426 670.20862,595.55064 669.8173,595.77657 Z" transform="matrix(1.511423,-0.16366377,0.16366377,1.511423,-755.37346,-191.93651)"></path>
        </g>
      </g>
    </g>
  </g>
</svg><svg xmlns:dc="http://purl.org/dc/elements/1.1/" xmlns:cc="http://creativecommons.org/ns#" xmlns:rdf="http://www.w3.org/1999/02/22-rdf-syntax-ns#" xmlns:svg="http://www.w3.org/2000/svg" xmlns="http://www.w3.org/2000/svg" xmlns:xlink="http://www.w3.org/1999/xlink" xmlns:sodipodi="http://sodipodi.sourceforge.net/DTD/sodipodi-0.dtd" xmlns:inkscape="http://www.inkscape.org/namespaces/inkscape" width="96" height="96" id="icon-2" version="1.1" inkscape:version="0.48+devel r12304" sodipodi:docname="MySQL.svg" viewBox="0 0 96 96">
  <defs id="defs6519">
    <linearGradient inkscape:collect="always" id="linearGradient902">
      <stop style="stop-color:#0f76a1;stop-opacity:1" offset="0" id="stop904"></stop>
      <stop style="stop-color:#35a0cd;stop-opacity:1" offset="1" id="stop906"></stop>
    </linearGradient>
    <linearGradient id="Background">
      <stop id="stop4178" offset="0" style="stop-color:#22779e;stop-opacity:1"></stop>
      <stop id="stop4180" offset="1" style="stop-color:#2991c0;stop-opacity:1"></stop>
    </linearGradient>
    <filter style="color-interpolation-filters:sRGB;" inkscape:label="Inner Shadow" id="filter1121">
      <feFlood flood-opacity="0.59999999999999998" flood-color="rgb(0,0,0)" result="flood" id="feFlood1123"></feFlood>
      <feComposite in="flood" in2="SourceGraphic" operator="out" result="composite1" id="feComposite1125"></feComposite>
      <feGaussianBlur in="composite1" stdDeviation="1" result="blur" id="feGaussianBlur1127"></feGaussianBlur>
      <feOffset dx="0" dy="2" result="offset" id="feOffset1129"></feOffset>
      <feComposite in="offset" in2="SourceGraphic" operator="atop" result="composite2" id="feComposite1131"></feComposite>
    </filter>
    <filter style="color-interpolation-filters:sRGB;" inkscape:label="Drop Shadow" id="filter950">
      <feFlood flood-opacity="0.25" flood-color="rgb(0,0,0)" result="flood" id="feFlood952"></feFlood>
      <feComposite in="flood" in2="SourceGraphic" operator="in" result="composite1" id="feComposite954"></feComposite>
      <feGaussianBlur in="composite1" stdDeviation="1" result="blur" id="feGaussianBlur956"></feGaussianBlur>
      <feOffset dx="0" dy="1" result="offset" id="feOffset958"></feOffset>
      <feComposite in="SourceGraphic" in2="offset" operator="over" result="composite2" id="feComposite960"></feComposite>
    </filter>
    <clipPath clipPathUnits="userSpaceOnUse" id="clipPath873">
      <g transform="matrix(0,-0.66666667,0.66604479,0,-258.25992,677.00001)" id="g875" inkscape:label="Layer 1" style="fill:#ff00ff;fill-opacity:1;stroke:none;display:inline">
        <path style="fill:#ff00ff;fill-opacity:1;stroke:none;display:inline" d="m 46.702703,898.22775 50.594594,0 C 138.16216,898.22775 144,904.06497 144,944.92583 l 0,50.73846 c 0,40.86071 -5.83784,46.69791 -46.702703,46.69791 l -50.594594,0 C 5.8378378,1042.3622 0,1036.525 0,995.66429 L 0,944.92583 C 0,904.06497 5.8378378,898.22775 46.702703,898.22775 Z" id="path877" inkscape:connector-curvature="0" sodipodi:nodetypes="sssssssss"></path>
      </g>
    </clipPath>
    <filter inkscape:collect="always" id="filter891" inkscape:label="Badge Shadow">
      <feGaussianBlur inkscape:collect="always" stdDeviation="0.71999962" id="feGaussianBlur893"></feGaussianBlur>
    </filter>
    <style id="style867" type="text/css">
    .fil0 {fill:#1F1A17}
   </style>
    <linearGradient inkscape:collect="always" xlink:href="#linearGradient902" id="linearGradient908" x1="-220" y1="731.29077" x2="-220" y2="635.29077" gradientUnits="userSpaceOnUse"></linearGradient>
    <clipPath id="clipPath16">
      <path id="path18" d="m -9,-9 614,0 0,231 -614,0 0,-231 z"></path>
    </clipPath>
    <clipPath id="clipPath116">
      <path id="path118" d="m 91.7368,146.3253 -9.7039,-1.577 -8.8548,-3.8814 -7.5206,-4.7308 -7.1566,-8.7335 -4.0431,-4.282 -3.9093,-1.4409 -1.034,2.5271 1.8079,2.6096 0.4062,3.6802 1.211,-0.0488 1.3232,-1.2069 -0.3569,3.7488 -1.4667,0.9839 0.0445,1.4286 -3.4744,-1.9655 -3.1462,-3.712 -0.6559,-3.3176 1.3453,-2.6567 1.2549,-4.5133 2.5521,-1.2084 2.6847,0.1318 2.5455,1.4791 -1.698,-8.6122 1.698,-9.5825 -1.8692,-4.4246 -6.1223,-6.5965 1.0885,-3.941 2.9002,-4.5669 5.4688,-3.8486 2.9007,-0.3969 3.225,-0.1094 -2.012,-8.2601 7.3993,-3.0326 9.2188,-1.2129 3.1535,2.0619 0.2427,5.5797 3.5178,5.8224 0.2426,4.6094 8.4909,-0.6066 7.8843,0.7279 -7.8843,-4.7307 1.3343,-5.701 4.9731,-7.763 4.8521,-2.0622 3.8814,1.5769 1.577,3.1538 8.1269,6.1861 1.5769,-1.3343 12.7363,-0.485 2.5473,2.0619 0.2426,3.6391 -0.849,1.5767 -0.6066,9.8251 -4.2454,8.4909 0.7276,3.7605 2.5475,-1.3343 7.1566,-6.6716 3.5175,-0.2424 3.8815,1.5769 3.8818,2.9109 1.9406,6.3077 11.4021,-0.7277 6.914,2.6686 5.5797,5.2157 4.0028,7.5206 0.9706,8.8546 -0.8493,10.3105 -2.1832,9.2185 -2.1836,2.9112 -3.0322,0.9706 -5.3373,-5.8224 -4.8518,-1.6982 -4.2455,7.0353 -4.2454,3.8815 -2.3049,1.4556 -9.2185,7.6419 -7.3993,4.0028 -7.3993,0.6066 -8.6119,-1.4556 -7.5206,-2.7899 -5.2158,-4.2454 -4.1241,-4.9734 -4.2454,-1.2129"></path>
    </clipPath>
    <clipPath id="clipPath128">
      <path id="path130" d="m 91.7368,146.3253 -9.7039,-1.577 -8.8548,-3.8814 -7.5206,-4.7308 -7.1566,-8.7335 -4.0431,-4.282 -3.9093,-1.4409 -1.034,2.5271 1.8079,2.6096 0.4062,3.6802 1.211,-0.0488 1.3232,-1.2069 -0.3569,3.7488 -1.4667,0.9839 0.0445,1.4286 -3.4744,-1.9655 -3.1462,-3.712 -0.6559,-3.3176 1.3453,-2.6567 1.2549,-4.5133 2.5521,-1.2084 2.6847,0.1318 2.5455,1.4791 -1.698,-8.6122 1.698,-9.5825 -1.8692,-4.4246 -6.1223,-6.5965 1.0885,-3.941 2.9002,-4.5669 5.4688,-3.8486 2.9007,-0.3969 3.225,-0.1094 -2.012,-8.2601 7.3993,-3.0326 9.2188,-1.2129 3.1535,2.0619 0.2427,5.5797 3.5178,5.8224 0.2426,4.6094 8.4909,-0.6066 7.8843,0.7279 -7.8843,-4.7307 1.3343,-5.701 4.9731,-7.763 4.8521,-2.0622 3.8814,1.5769 1.577,3.1538 8.1269,6.1861 1.5769,-1.3343 12.7363,-0.485 2.5473,2.0619 0.2426,3.6391 -0.849,1.5767 -0.6066,9.8251 -4.2454,8.4909 0.7276,3.7605 2.5475,-1.3343 7.1566,-6.6716 3.5175,-0.2424 3.8815,1.5769 3.8818,2.9109 1.9406,6.3077 11.4021,-0.7277 6.914,2.6686 5.5797,5.2157 4.0028,7.5206 0.9706,8.8546 -0.8493,10.3105 -2.1832,9.2185 -2.1836,2.9112 -3.0322,0.9706 -5.3373,-5.8224 -4.8518,-1.6982 -4.2455,7.0353 -4.2454,3.8815 -2.3049,1.4556 -9.2185,7.6419 -7.3993,4.0028 -7.3993,0.6066 -8.6119,-1.4556 -7.5206,-2.7899 -5.2158,-4.2454 -4.1241,-4.9734 -4.2454,-1.2129"></path>
    </clipPath>
  </defs>
  <sodipodi:namedview id="base" pagecolor="#ffffff" bordercolor="#666666" borderopacity="1.0" inkscape:pageopacity="0.0" inkscape:pageshadow="2" inkscape:zoom="2.6077031" inkscape:cx="26.283166" inkscape:cy="11.150158" inkscape:document-units="px" inkscape:current-layer="layer1" showgrid="true" fit-margin-top="0" fit-margin-left="0" fit-margin-right="0" fit-margin-bottom="0" inkscape:window-width="1920" inkscape:window-height="1029" inkscape:window-x="0" inkscape:window-y="24" inkscape:window-maximized="1" showborder="true" showguides="true" inkscape:guide-bbox="true" inkscape:showpageshadow="false" inkscape:snap-global="true" inkscape:snap-bbox="true" inkscape:bbox-paths="true" inkscape:bbox-nodes="true" inkscape:snap-bbox-edge-midpoints="true" inkscape:snap-bbox-midpoints="true" inkscape:object-paths="true" inkscape:snap-intersection-paths="true" inkscape:object-nodes="true" inkscape:snap-smooth-nodes="true" inkscape:snap-midpoints="true" inkscape:snap-object-midpoints="true" inkscape:snap-center="true">
    <inkscape:grid type="xygrid" id="grid821"></inkscape:grid>
    <sodipodi:guide orientation="1,0" position="16,48" id="guide823"></sodipodi:guide>
    <sodipodi:guide orientation="0,1" position="64,80" id="guide825"></sodipodi:guide>
    <sodipodi:guide orientation="1,0" position="80,40" id="guide827"></sodipodi:guide>
    <sodipodi:guide orientation="0,1" position="64,16" id="guide829"></sodipodi:guide>
  </sodipodi:namedview>
  <metadata id="metadata6522">
    <rdf:RDF>
      <cc:Work rdf:about="">
        <dc:format>image/svg+xml</dc:format>
        <dc:type rdf:resource="http://purl.org/dc/dcmitype/StillImage"></dc:type>
        <dc:title></dc:title>
      </cc:Work>
    </rdf:RDF>
  </metadata>
  <g inkscape:label="BACKGROUND" inkscape:groupmode="layer" id="layer1" transform="translate(268,-635.29076)" style="display:inline">
    <path style="fill:url(#linearGradient908);fill-opacity:1;stroke:none;display:inline;filter:url(#filter1121)" d="m -268,700.15563 0,-33.72973 c 0,-27.24324 3.88785,-31.13513 31.10302,-31.13513 l 33.79408,0 c 27.21507,0 31.1029,3.89189 31.1029,31.13513 l 0,33.72973 c 0,27.24325 -3.88783,31.13514 -31.1029,31.13514 l -33.79408,0 C -264.11215,731.29077 -268,727.39888 -268,700.15563 Z" id="path6455" inkscape:connector-curvature="0" sodipodi:nodetypes="sssssssss"></path>
    <g transform="matrix(0.20523412,0,0,0.20523412,-210.56901,661.58332)" style="fill:#ffffff;fill-rule:nonzero;stroke:none" id="g981"></g>
    <path inkscape:connector-curvature="0" d="m -237.77086,662.27103 c -0.74197,-0.0137 -1.26666,0.081 -1.82156,0.20207 0,0.0339 0,0.0678 0,0.10125 0.0338,0 0.0676,0 0.10142,0 0.35386,0.72718 0.97862,1.19512 1.41632,1.82156 0.33718,0.70829 0.67435,1.41659 1.01198,2.12443 0.0334,-0.0335 0.0676,-0.0673 0.10097,-0.10083 0.62657,-0.44153 0.91372,-1.14803 0.91056,-2.22609 -0.25108,-0.26415 -0.28804,-0.5956 -0.50576,-0.91082 C -236.84633,662.86266 -237.40618,662.62407 -237.77086,662.27103 z m 45.22754,38.55047 c -3.55838,-0.0965 -6.27652,0.2344 -8.60024,1.21437 -0.66037,0.27858 -1.71337,0.28579 -1.82111,1.1134 0.36287,0.38045 0.41922,0.94842 0.70771,1.41632 0.5549,0.89794 1.4916,2.10104 2.32733,2.73212 0.91326,0.68922 1.85446,1.42668 2.83354,2.0235 1.74132,1.06202 3.68549,1.6683 5.36236,2.73212 0.98808,0.62702 1.96986,1.41677 2.93406,2.12448 0.47646,0.3498 0.79696,0.89388 1.41632,1.11295 0,-0.0334 0,-0.0672 0,-0.10097 -0.32546,-0.41426 -0.4093,-0.98403 -0.70816,-1.41677 -0.43815,-0.43815 -0.87675,-0.87675 -1.31535,-1.31535 -1.28605,-1.70706 -2.91873,-3.20632 -4.6542,-4.4518 -1.38386,-0.9935 -4.48155,-2.33544 -5.05899,-3.94604 -0.0338,-0.0338 -0.0672,-0.0676 -0.10142,-0.10143 0.98132,-0.11043 2.13034,-0.46564 3.03593,-0.70815 1.52135,-0.40795 2.88087,-0.30247 4.45181,-0.70816 0.70816,-0.2024 1.41632,-0.40525 2.12493,-0.60719 0,-0.13523 0,-0.26956 0,-0.40479 -0.79426,-0.815 -1.36043,-1.89324 -2.22636,-2.6307 -2.26557,-1.92929 -4.73849,-3.85678 -7.28489,-5.46405 -1.41226,-0.89144 -3.15764,-1.47072 -4.6542,-2.22612 -0.50351,-0.25401 -1.38792,-0.38609 -1.72059,-0.80954 -0.78614,-1.00238 -1.21437,-2.27278 -1.82066,-3.44023 -1.27027,-2.44575 -2.51755,-5.11692 -3.64267,-7.68991 -0.76766,-1.75467 -1.26892,-3.48513 -2.2259,-5.05931 -4.59425,-7.55346 -9.53964,-12.11268 -17.20048,-16.59396 -1.62998,-0.95302 -3.59263,-1.32941 -5.66663,-1.82111 -1.1125,-0.0673 -2.2259,-0.13515 -3.33885,-0.20249 -0.67931,-0.28394 -1.38612,-1.11507 -2.02351,-1.51783 -2.53783,-1.60324 -9.0474,-5.09055 -10.92711,-0.50581 -1.18688,2.8939 1.77378,5.71783 2.83264,7.18414 0.74332,1.02875 1.69489,2.18209 2.2259,3.33895 0.34935,0.76026 0.40975,1.5227 0.70861,2.32737 0.73566,1.98181 1.3753,4.13793 2.32687,5.96963 0.48098,0.92665 1.01108,1.90302 1.61917,2.73189 0.37279,0.50847 1.01153,0.7325 1.1125,1.51784 -0.62476,0.87426 -0.66038,2.2314 -1.01153,3.33898 -1.5813,4.98619 -0.98493,11.18383 1.31535,14.8741 0.70591,1.13279 2.36835,3.56243 4.6542,2.63069 1.99961,-0.81454 1.5529,-3.3384 2.12493,-5.56511 0.12937,-0.50495 0.05,-0.87603 0.30337,-1.2141 0,0.0334 0,0.0673 0,0.10124 0.60718,1.2141 1.21437,2.42816 1.82156,3.64204 1.3478,2.17091 3.74004,4.43963 5.76715,5.97045 1.05119,0.7938 1.87881,2.1664 3.23788,2.63069 0,-0.0338 0,-0.0672 0,-0.10142 -0.0343,0 -0.0676,0 -0.10143,0 -0.26324,-0.41065 -0.67525,-0.5806 -1.01152,-0.91056 -0.792,-0.77623 -1.67236,-1.74132 -2.32733,-2.63069 -1.84365,-2.50313 -3.47318,-5.24291 -4.95756,-8.0947 -0.70907,-1.36155 -1.32527,-2.86397 -1.92299,-4.24977 -0.23034,-0.53439 -0.22764,-1.34217 -0.70771,-1.61903 -0.65452,1.01554 -1.61871,1.83653 -2.12493,3.03562 -0.80958,1.91667 -0.91416,4.25414 -1.21392,6.67802 -0.1776,0.0636 -0.0987,0.0198 -0.20285,0.10097 -1.4091,-0.33988 -1.9045,-1.79059 -2.42784,-3.03503 -1.32482,-3.14746 -1.57094,-8.21555 -0.40524,-11.83844 0.30156,-0.93719 1.66469,-3.88964 1.11295,-4.75553 -0.26325,-0.86412 -1.13234,-1.36376 -1.61872,-2.02404 -0.60178,-0.81617 -1.20265,-1.89071 -1.61916,-2.83318 -1.08411,-2.45413 -1.59032,-5.20896 -2.73167,-7.68951 -0.54543,-1.18593 -1.46816,-2.38592 -2.2259,-3.44018 -0.83888,-1.16786 -1.77829,-2.02806 -2.4283,-3.44064 -0.23124,-0.50184 -0.54543,-1.30525 -0.2024,-1.82115 0.10909,-0.34822 0.2628,-0.49346 0.60719,-0.60706 0.5869,-0.45252 2.2214,0.15056 2.83264,0.40457 1.62277,0.67395 2.97688,1.31575 4.35128,2.22613 0.65993,0.43756 1.32707,1.28361 2.12448,1.51783 0.30337,0 0.60719,0 0.91056,0 1.42443,0.32748 3.02015,0.10169 4.35083,0.50576 2.35211,0.71492 4.45991,1.82688 6.37433,3.03567 5.83206,3.68234 10.60031,8.9243 13.86208,15.17738 0.5247,1.00674 0.75188,1.96774 1.21392,3.03566 0.93265,2.15351 2.10735,4.36949 3.03504,6.4754 0.92588,2.10113 1.82832,4.22159 3.1369,5.97008 0.68833,0.91912 3.34562,1.41218 4.55323,1.92236 0.84655,0.35791 2.23357,0.7307 3.03549,1.21392 1.53171,0.92408 3.01565,2.02396 4.45225,3.03594 C -194.86027,698.79799 -192.6533,699.90734 -192.54332,700.8215 Z" style="fill:#ffffff;fill-rule:evenodd;stroke:#ffffff;filter:url(#filter950);stroke-width:0.5;stroke-miterlimit:4;stroke-dasharray:none" id="path987"></path>
  </g>
  <g inkscape:groupmode="layer" id="layer3" inkscape:label="PLACE YOUR PICTOGRAM HERE" style="display:inline"></g>
  <g inkscape:groupmode="layer" id="layer2" inkscape:label="BADGE" style="display:none" sodipodi:insensitive="true">
    <g style="display:inline" transform="translate(-340.00001,-581)" id="g4394" clip-path="none">
      <g id="g855">
        <g inkscape:groupmode="maskhelper" id="g870" clip-path="url(#clipPath873)" style="opacity:0.6;filter:url(#filter891)">
          <path transform="matrix(1.4999992,0,0,1.4999992,-29.999795,-237.54282)" d="m 264,552.36218 c 0,6.62742 -5.37258,12 -12,12 -6.62742,0 -12,-5.37258 -12,-12 0,-6.62741 5.37258,-12 12,-12 C 258.62742,540.36218 264,545.73477 264,552.36218 Z" sodipodi:ry="12" sodipodi:rx="12" sodipodi:cy="552.36218" sodipodi:cx="252" id="path844" style="color:#000000;fill:#000000;fill-opacity:1;fill-rule:nonzero;stroke:none;stroke-width:4;marker:none;visibility:visible;display:inline;overflow:visible;enable-background:accumulate" sodipodi:type="arc"></path>
        </g>
        <g id="g862">
          <path sodipodi:type="arc" style="color:#000000;fill:#f5f5f5;fill-opacity:1;fill-rule:nonzero;stroke:none;stroke-width:4;marker:none;visibility:visible;display:inline;overflow:visible;enable-background:accumulate" id="path4398" sodipodi:cx="252" sodipodi:cy="552.36218" sodipodi:rx="12" sodipodi:ry="12" d="m 264,552.36218 c 0,6.62742 -5.37258,12 -12,12 -6.62742,0 -12,-5.37258 -12,-12 0,-6.62741 5.37258,-12 12,-12 C 258.62742,540.36218 264,545.73477 264,552.36218 Z" transform="matrix(1.4999992,0,0,1.4999992,-29.999795,-238.54282)"></path>
          <path transform="matrix(1.25,0,0,1.25,33,-100.45273)" d="m 264,552.36218 c 0,6.62742 -5.37258,12 -12,12 -6.62742,0 -12,-5.37258 -12,-12 0,-6.62741 5.37258,-12 12,-12 C 258.62742,540.36218 264,545.73477 264,552.36218 Z" sodipodi:ry="12" sodipodi:rx="12" sodipodi:cy="552.36218" sodipodi:cx="252" id="path4400" style="color:#000000;fill:#dd4814;fill-opacity:1;fill-rule:nonzero;stroke:none;stroke-width:4;marker:none;visibility:visible;display:inline;overflow:visible;enable-background:accumulate" sodipodi:type="arc"></path>
          <path sodipodi:type="star" style="color:#000000;fill:#f5f5f5;fill-opacity:1;fill-rule:nonzero;stroke:none;stroke-width:3;marker:none;visibility:visible;display:inline;overflow:visible;enable-background:accumulate" id="path4459" sodipodi:sides="5" sodipodi:cx="666.19574" sodipodi:cy="589.50385" sodipodi:r1="7.2431178" sodipodi:r2="4.3458705" sodipodi:arg1="1.0471976" sodipodi:arg2="1.6755161" inkscape:flatsided="false" inkscape:rounded="0.1" inkscape:randomized="0" d="m 669.8173,595.77657 c -0.39132,0.22593 -3.62645,-1.90343 -4.07583,-1.95066 -0.44938,-0.0472 -4.05653,1.36297 -4.39232,1.06062 -0.3358,-0.30235 0.68963,-4.03715 0.59569,-4.47913 -0.0939,-0.44198 -2.5498,-3.43681 -2.36602,-3.8496 0.18379,-0.41279 4.05267,-0.59166 4.44398,-0.81759 0.39132,-0.22593 2.48067,-3.48704 2.93005,-3.4398 0.44938,0.0472 1.81505,3.67147 2.15084,3.97382 0.3358,0.30236 4.08294,1.2817 4.17689,1.72369 0.0939,0.44198 -2.9309,2.86076 -3.11469,3.27355 C 669.9821,591.68426 670.20862,595.55064 669.8173,595.77657 Z" transform="matrix(1.511423,-0.16366377,0.16366377,1.511423,-755.37346,-191.93651)"></path>
        </g>
      </g>
    </g>
  </g>
</svg><svg xmlns:dc="http://purl.org/dc/elements/1.1/" xmlns:cc="http://creativecommons.org/ns#" xmlns:rdf="http://www.w3.org/1999/02/22-rdf-syntax-ns#" xmlns:svg="http://www.w3.org/2000/svg" xmlns="http://www.w3.org/2000/svg" xmlns:xlink="http://www.w3.org/1999/xlink" xmlns:sodipodi="http://sodipodi.sourceforge.net/DTD/sodipodi-0.dtd" xmlns:inkscape="http://www.inkscape.org/namespaces/inkscape" width="96" height="96" id="icon-3" version="1.1" inkscape:version="0.48+devel r12304" sodipodi:docname="wordpess.svg" viewBox="0 0 96 96">
  <defs id="defs6519">
    <linearGradient inkscape:collect="always" xlink:href="#Background" id="linearGradient6461" gradientUnits="userSpaceOnUse" x1="0" y1="970.29498" x2="144" y2="970.29498" gradientTransform="matrix(0,-0.66666669,0.6660448,0,-866.25992,731.29077)"></linearGradient>
    <linearGradient id="Background">
      <stop id="stop4178" offset="0" style="stop-color:#22779e;stop-opacity:1"></stop>
      <stop id="stop4180" offset="1" style="stop-color:#2991c0;stop-opacity:1"></stop>
    </linearGradient>
    <filter style="color-interpolation-filters:sRGB;" inkscape:label="Inner Shadow" id="filter1121">
      <feFlood flood-opacity="0.59999999999999998" flood-color="rgb(0,0,0)" result="flood" id="feFlood1123"></feFlood>
      <feComposite in="flood" in2="SourceGraphic" operator="out" result="composite1" id="feComposite1125"></feComposite>
      <feGaussianBlur in="composite1" stdDeviation="1" result="blur" id="feGaussianBlur1127"></feGaussianBlur>
      <feOffset dx="0" dy="2" result="offset" id="feOffset1129"></feOffset>
      <feComposite in="offset" in2="SourceGraphic" operator="atop" result="composite2" id="feComposite1131"></feComposite>
    </filter>
    <filter style="color-interpolation-filters:sRGB;" inkscape:label="Drop Shadow" id="filter950">
      <feFlood flood-opacity="0.25" flood-color="rgb(0,0,0)" result="flood" id="feFlood952"></feFlood>
      <feComposite in="flood" in2="SourceGraphic" operator="in" result="composite1" id="feComposite954"></feComposite>
      <feGaussianBlur in="composite1" stdDeviation="1" result="blur" id="feGaussianBlur956"></feGaussianBlur>
      <feOffset dx="0" dy="1" result="offset" id="feOffset958"></feOffset>
      <feComposite in="SourceGraphic" in2="offset" operator="over" result="composite2" id="feComposite960"></feComposite>
    </filter>
    <clipPath clipPathUnits="userSpaceOnUse" id="clipPath873">
      <g transform="matrix(0,-0.66666667,0.66604479,0,-258.25992,677.00001)" id="g875" inkscape:label="Layer 1" style="fill:#ff00ff;fill-opacity:1;stroke:none;display:inline">
        <path style="fill:#ff00ff;fill-opacity:1;stroke:none;display:inline" d="m 46.702703,898.22775 50.594594,0 C 138.16216,898.22775 144,904.06497 144,944.92583 l 0,50.73846 c 0,40.86071 -5.83784,46.69791 -46.702703,46.69791 l -50.594594,0 C 5.8378378,1042.3622 0,1036.525 0,995.66429 L 0,944.92583 C 0,904.06497 5.8378378,898.22775 46.702703,898.22775 Z" id="path877" inkscape:connector-curvature="0" sodipodi:nodetypes="sssssssss"></path>
      </g>
    </clipPath>
    <filter inkscape:collect="always" id="filter891" inkscape:label="Badge Shadow">
      <feGaussianBlur inkscape:collect="always" stdDeviation="0.71999962" id="feGaussianBlur893"></feGaussianBlur>
    </filter>
    <style id="style867" type="text/css">
    .fil0 {fill:#1F1A17}
   </style>
  </defs>
  <sodipodi:namedview id="base" pagecolor="#ffffff" bordercolor="#666666" borderopacity="1.0" inkscape:pageopacity="0.0" inkscape:pageshadow="2" inkscape:zoom="5.0931703" inkscape:cx="77.896217" inkscape:cy="33.157404" inkscape:document-units="px" inkscape:current-layer="layer1" showgrid="true" fit-margin-top="0" fit-margin-left="0" fit-margin-right="0" fit-margin-bottom="0" inkscape:window-width="1920" inkscape:window-height="1029" inkscape:window-x="0" inkscape:window-y="24" inkscape:window-maximized="1" showborder="true" showguides="true" inkscape:guide-bbox="true" inkscape:showpageshadow="false">
    <inkscape:grid type="xygrid" id="grid821"></inkscape:grid>
    <sodipodi:guide orientation="1,0" position="16,48" id="guide823"></sodipodi:guide>
    <sodipodi:guide orientation="0,1" position="64,80" id="guide825"></sodipodi:guide>
    <sodipodi:guide orientation="1,0" position="80,40" id="guide827"></sodipodi:guide>
    <sodipodi:guide orientation="0,1" position="64,16" id="guide829"></sodipodi:guide>
  </sodipodi:namedview>
  <metadata id="metadata6522">
    <rdf:RDF>
      <cc:Work rdf:about="">
        <dc:format>image/svg+xml</dc:format>
        <dc:type rdf:resource="http://purl.org/dc/dcmitype/StillImage"></dc:type>
        <dc:title></dc:title>
      </cc:Work>
    </rdf:RDF>
  </metadata>
  <g inkscape:label="BACKGROUND" inkscape:groupmode="layer" id="layer1" transform="translate(268,-635.29076)" style="display:inline">
    <path style="fill:url(#linearGradient6461);fill-opacity:1;stroke:none;display:inline;filter:url(#filter1121)" d="m -268,700.15563 0,-33.72973 c 0,-27.24324 3.88785,-31.13513 31.10302,-31.13513 l 33.79408,0 c 27.21507,0 31.1029,3.89189 31.1029,31.13513 l 0,33.72973 c 0,27.24325 -3.88783,31.13514 -31.1029,31.13514 l -33.79408,0 C -264.11215,731.29077 -268,727.39888 -268,700.15563 Z" id="path6455" inkscape:connector-curvature="0" sodipodi:nodetypes="sssssssss"></path>
    <g style="fill:#ffffff;fill-rule:evenodd;clip-rule:evenodd;image-rendering:optimizeQuality;shape-rendering:geometricPrecision;text-rendering:geometricPrecision" id="g878" transform="matrix(12.39023,0,0,12.39023,-292.43888,632.07116)">
      <g id="Layer_x0020_1" style="fill:#ffffff">
        <metadata id="CorelCorpID_0Corel-Layer"></metadata>
        <path id="path871" d="m 5.84646,1.91309 c 0.579315,0 1.1068,0.222004 1.50223,0.585472 C 7.154934,2.493432 6.961544,2.60859 6.953509,2.872393 6.937249,3.405739 7.591245,3.519259 7.238796,4.592003 L 6.947288,5.479306 6.153367,3.140656 C 6.141076,3.104455 6.155407,3.083888 6.199895,3.083888 l 0.224449,0 c 0.011665,0 0.021201,-0.00996 0.021201,-0.022158 l 0,-0.132937 c 0,-0.012193 -0.00956,-0.022657 -0.021201,-0.022153 -0.425051,0.018587 -0.847602,0.018713 -1.26756,0 C 5.145146,2.9061282 5.135583,2.91661 5.135583,2.928793 l 0,0.132937 c 0,0.012185 0.00954,0.022158 0.021201,0.022158 l 0.225677,0 c 0.050201,0 0.064256,0.016728 0.076091,0.049087 L 5.78482,4.025136 5.294072,5.506786 4.487548,3.130966 C 4.477461,3.101249 4.489568,3.083891 4.51832,3.083891 l 0.25715,0 c 0.011661,0 0.021197,-0.00996 0.021197,-0.022158 l 0,-0.132937 C 4.796667,2.916603 4.787097,2.906032 4.77547,2.906643 4.505671,2.920974 4.23484,2.923856 3.982564,2.926446 4.3784489,2.3166032 5.0653829,1.9130962 5.8464629,1.9130962 z m 1.95322,1.16333 c 0.17065,0.314413 0.267551,0.674642 0.267551,1.05744 0,0.840051 -0.466752,1.57124 -1.15494,1.94855 L 7.605027,4.12073 C 7.712259,3.817092 7.811858,3.406809 7.799684,3.07642 Z M 6.59001,6.22685 C 6.357522,6.309504 6.10727,6.354637 5.846455,6.354637 5.621809,6.354637 5.405018,6.321129 5.200624,6.25907 L 5.88477,4.2984601 6.59001,6.2268501 Z M 4.89622,6.1414051 c -0.751012,-0.356169 -1.27054,-1.12126 -1.27054,-2.00754 0,-0.32852 0.071465,-0.640378 0.199547,-0.920957 L 4.896217,6.1414081 z m 0.950232,-4.43668 c 1.34134,0 2.42914,1.0878 2.42914,2.42914 0,1.34134 -1.0878,2.42914 -2.42914,2.42914 -1.34134,0 -2.42914,-1.0878 -2.42914,-2.42914 C 3.417312,2.7925251 4.505112,1.7047251 5.846452,1.7047251 z m 0,-0.153535 c 1.42613,0 2.58268,1.15655 2.58268,2.58268 0,1.42613 -1.15655,2.58268 -2.58268,2.58268 -1.42613,0 -2.58268,-1.15655 -2.58268,-2.58268 C 3.263772,2.7077401 4.420322,1.5511901 5.846452,1.5511901 Z" class="fil0" inkscape:connector-curvature="0" style="fill:#ffffff"></path>
      </g>
    </g>
  </g>
  <g inkscape:groupmode="layer" id="layer3" inkscape:label="PLACE YOUR PICTOGRAM HERE" style="display:inline"></g>
  <g inkscape:groupmode="layer" id="layer2" inkscape:label="BADGE" style="display:none" sodipodi:insensitive="true">
    <g style="display:inline" transform="translate(-340.00001,-581)" id="g4394" clip-path="none">
      <g id="g855">
        <g inkscape:groupmode="maskhelper" id="g870" clip-path="url(#clipPath873)" style="opacity:0.6;filter:url(#filter891)">
          <path transform="matrix(1.4999992,0,0,1.4999992,-29.999795,-237.54282)" d="m 264,552.36218 c 0,6.62742 -5.37258,12 -12,12 -6.62742,0 -12,-5.37258 -12,-12 0,-6.62741 5.37258,-12 12,-12 C 258.62742,540.36218 264,545.73477 264,552.36218 Z" sodipodi:ry="12" sodipodi:rx="12" sodipodi:cy="552.36218" sodipodi:cx="252" id="path844" style="color:#000000;fill:#000000;fill-opacity:1;fill-rule:nonzero;stroke:none;stroke-width:4;marker:none;visibility:visible;display:inline;overflow:visible;enable-background:accumulate" sodipodi:type="arc"></path>
        </g>
        <g id="g862">
          <path sodipodi:type="arc" style="color:#000000;fill:#f5f5f5;fill-opacity:1;fill-rule:nonzero;stroke:none;stroke-width:4;marker:none;visibility:visible;display:inline;overflow:visible;enable-background:accumulate" id="path4398" sodipodi:cx="252" sodipodi:cy="552.36218" sodipodi:rx="12" sodipodi:ry="12" d="m 264,552.36218 c 0,6.62742 -5.37258,12 -12,12 -6.62742,0 -12,-5.37258 -12,-12 0,-6.62741 5.37258,-12 12,-12 C 258.62742,540.36218 264,545.73477 264,552.36218 Z" transform="matrix(1.4999992,0,0,1.4999992,-29.999795,-238.54282)"></path>
          <path transform="matrix(1.25,0,0,1.25,33,-100.45273)" d="m 264,552.36218 c 0,6.62742 -5.37258,12 -12,12 -6.62742,0 -12,-5.37258 -12,-12 0,-6.62741 5.37258,-12 12,-12 C 258.62742,540.36218 264,545.73477 264,552.36218 Z" sodipodi:ry="12" sodipodi:rx="12" sodipodi:cy="552.36218" sodipodi:cx="252" id="path4400" style="color:#000000;fill:#dd4814;fill-opacity:1;fill-rule:nonzero;stroke:none;stroke-width:4;marker:none;visibility:visible;display:inline;overflow:visible;enable-background:accumulate" sodipodi:type="arc"></path>
          <path sodipodi:type="star" style="color:#000000;fill:#f5f5f5;fill-opacity:1;fill-rule:nonzero;stroke:none;stroke-width:3;marker:none;visibility:visible;display:inline;overflow:visible;enable-background:accumulate" id="path4459" sodipodi:sides="5" sodipodi:cx="666.19574" sodipodi:cy="589.50385" sodipodi:r1="7.2431178" sodipodi:r2="4.3458705" sodipodi:arg1="1.0471976" sodipodi:arg2="1.6755161" inkscape:flatsided="false" inkscape:rounded="0.1" inkscape:randomized="0" d="m 669.8173,595.77657 c -0.39132,0.22593 -3.62645,-1.90343 -4.07583,-1.95066 -0.44938,-0.0472 -4.05653,1.36297 -4.39232,1.06062 -0.3358,-0.30235 0.68963,-4.03715 0.59569,-4.47913 -0.0939,-0.44198 -2.5498,-3.43681 -2.36602,-3.8496 0.18379,-0.41279 4.05267,-0.59166 4.44398,-0.81759 0.39132,-0.22593 2.48067,-3.48704 2.93005,-3.4398 0.44938,0.0472 1.81505,3.67147 2.15084,3.97382 0.3358,0.30236 4.08294,1.2817 4.17689,1.72369 0.0939,0.44198 -2.9309,2.86076 -3.11469,3.27355 C 669.9821,591.68426 670.20862,595.55064 669.8173,595.77657 Z" transform="matrix(1.511423,-0.16366377,0.16366377,1.511423,-755.37346,-191.93651)"></path>
        </g>
      </g>
    </g>
  </g>
</svg></defs>
<g id="relations">
<line x1="189" y1="95" x2="339" y2="94" stroke="#38B44A" stroke-width="2px" stroke-dasharray="65.00, 20" />
<use x="254" y="84" xlink:href="#healthCircle" />
<line x1="94" y1="190" x2="94" y2="298" stroke="#38B44A" stroke-width="2px" stroke-dasharray="44.00, 20" />
<use x="84" y="234" xlink:href="#healthCircle" />
</g>
<g id="services">
<use x="0" y="298" xlink:href="#serviceBlock" id="memcached" />
<use x="46" y="344" xlink:href="#icon-1" width="96" height="96" />
<g style="font-size:18px;fill:#505050;text-anchor:middle">
<text x="94" y="329" >memcached</text>
</g>
<use x="339" y="0" xlink:href="#serviceBlock" id="mysql" />
<use x="385" y="46" xlink:href="#icon-2" width="96" height="96" />
<g style="font-size:18px;fill:#505050;text-anchor:middle">
<text x="433" y="31" >mysql</text>
</g>
<use x="0" y="1" xlink:href="#serviceBlock" id="wordpress" />
<use x="46" y="47" xlink:href="#icon-3" width="96" height="96" />
<g style="font-size:18px;fill:#505050;text-anchor:middle">
<text x="94" y="32" >wordpress</text>
</g>
</g>
</svg>
